<?xml version="1.0" encoding="iso-8859-1"?>
<!-- Uploaded to: SVG Repo, www.svgrepo.com, Generator: SVG Repo Mixer Tools -->
<svg fill="#000000" height="800px" width="800px" version="1.1" id="Layer_1" xmlns="http://www.w3.org/2000/svg" xmlns:xlink="http://www.w3.org/1999/xlink" 
	 viewBox="0 0 320.615 320.615" xml:space="preserve">
<g>
	<g>
		<g>
			<path d="M160.306,33.363c-34.7,0-62.936,28.232-62.936,62.936c0,34.704,28.236,62.932,62.936,62.932s62.936-28.232,62.936-62.932
				C223.242,61.599,195.006,33.363,160.306,33.363z M160.306,153.159c-31.356,0-56.864-25.508-56.864-56.86
				c0-31.356,25.508-56.864,56.864-56.864s56.864,25.508,56.864,56.864C217.17,127.651,191.662,153.159,160.306,153.159z"/>
			<path d="M255.326,108.599l-17.176-12.3l17.176-12.3c0.936-0.672,1.412-1.808,1.228-2.944c-0.176-1.136-0.98-2.072-2.08-2.42
				l-20.136-6.392l12.532-17.008c0.684-0.924,0.784-2.16,0.264-3.18c-0.524-1.024-1.46-1.568-2.728-1.656l-21.128,0.148
				l6.668-20.052c0.364-1.088,0.08-2.292-0.736-3.104c-0.812-0.816-2.016-1.1-3.104-0.736l-20.048,6.664l0.144-21.128
				c0.008-1.152-0.632-2.204-1.656-2.728c-1.024-0.524-2.256-0.42-3.18,0.26l-17.004,12.536L177.97,2.123
				c-0.348-1.096-1.284-1.904-2.42-2.08c-1.144-0.196-2.276,0.296-2.944,1.228l-12.3,17.184l-12.3-17.176
				c-0.668-0.936-1.808-1.416-2.944-1.228c-1.136,0.176-2.072,0.98-2.42,2.08l-6.392,20.136L119.242,9.731
				c-0.924-0.68-2.16-0.784-3.18-0.26c-1.024,0.52-1.668,1.576-1.656,2.728l0.148,21.128l-20.052-6.664
				c-1.088-0.364-2.296-0.076-3.104,0.736c-0.816,0.808-1.096,2.016-0.736,3.104l6.668,20.052l-21.128-0.148
				c-1.292,0.152-2.204,0.632-2.728,1.656c-0.52,1.024-0.42,2.256,0.264,3.18l12.536,17.008l-20.136,6.392
				c-1.096,0.348-1.904,1.28-2.08,2.42c-0.18,1.136,0.296,2.272,1.228,2.944l17.18,12.3l-17.18,12.3
				c-0.932,0.668-1.412,1.804-1.228,2.944c0.176,1.136,0.984,2.068,2.08,2.416l20.136,6.392l-12.536,17.012
				c-0.684,0.924-0.784,2.152-0.264,3.18c0.52,1.016,1.564,1.656,2.704,1.656h0.024l21.128-0.148l-6.668,20.048
				c-0.364,1.092-0.08,2.292,0.736,3.104c0.808,0.816,2.012,1.092,3.104,0.736l20.052-6.668l-0.148,21.128
				c-0.004,0.568,0.156,1.116,0.436,1.584l-13.572,99.012c-0.164,1.212,0.416,2.408,1.472,3.028c1.056,0.62,2.38,0.544,3.364-0.188
				l30.14-22.648l21.052,27.976c0.584,0.772,1.488,1.208,2.428,1.208c0.252,0,0.512-0.032,0.764-0.096
				c1.188-0.312,2.076-1.308,2.244-2.528l7.572-55.268l32.416,86.164c0.444,1.184,1.576,1.964,2.84,1.964h0.02
				c1.272-0.008,2.404-0.808,2.836-2.004l11.548-32.048l27.536,15.556c1.108,0.624,2.492,0.496,3.464-0.332s1.32-2.172,0.88-3.364
				L206.17,175.215l-0.108-15.944l20.048,6.668c1.092,0.36,2.292,0.08,3.104-0.736c0.816-0.812,1.096-2.016,0.736-3.104
				l-6.668-20.048l21.128,0.148c1.328,0.072,2.204-0.632,2.728-1.656c0.52-1.024,0.42-2.256-0.264-3.18l-12.532-17.012l20.136-6.392
				c1.096-0.348,1.904-1.28,2.08-2.416C256.738,110.407,256.262,109.267,255.326,108.599z M157.718,279.623l-18.444-24.508
				c-1.008-1.34-2.916-1.604-4.252-0.6l-26.744,20.1l12.756-93.064l15.22-11.216l6.392,20.14c0.348,1.096,1.284,1.9,2.42,2.08
				c1.14,0.192,2.276-0.3,2.944-1.228l12.296-17.188l9.96,13.912L157.718,279.623z M243.266,292.755l-23.444-13.248
				c-0.784-0.436-1.716-0.508-2.552-0.2c-0.84,0.312-1.496,0.976-1.8,1.82l-9.972,27.672l-33.464-88.948l3.76-27.412
				c1.012-0.256,1.852-0.96,2.172-1.964l6.392-20.14l17.004,12.536c0.404,0.3,0.876,0.436,1.352,0.508L243.266,292.755z
				 M228.462,115.847c-0.932,0.296-1.668,1.024-1.968,1.956c-0.304,0.932-0.136,1.948,0.444,2.74l11.452,15.544l-19.304-0.136h-0.02
				c-0.972,0-1.884,0.464-2.456,1.252c-0.576,0.792-0.736,1.812-0.424,2.744l6.092,18.32l-18.324-6.092
				c-0.928-0.312-1.952-0.152-2.744,0.424c-0.792,0.572-1.26,1.496-1.252,2.476l0.128,18.844c-0.048,0.124-0.06,0.26-0.096,0.388
				l-15.444-11.38c-0.784-0.58-1.812-0.748-2.736-0.444c-0.936,0.3-1.66,1.036-1.956,1.968l-5.84,18.4l-11.244-15.696
				c-0.572-0.796-1.488-1.268-2.468-1.268s-1.9,0.472-2.468,1.268l-11.24,15.696l-5.84-18.4c-0.296-0.932-1.024-1.668-1.956-1.968
				c-0.932-0.304-1.948-0.14-2.736,0.444l-15.544,11.452l0.136-19.304c0.008-0.98-0.46-1.904-1.252-2.476
				c-0.796-0.58-1.816-0.74-2.744-0.424l-18.32,6.092l6.092-18.32c0.312-0.928,0.152-1.948-0.424-2.744
				c-0.572-0.788-1.484-1.252-2.456-1.252h-0.02l-19.304,0.136l11.452-15.544c0.58-0.788,0.748-1.808,0.444-2.74
				c-0.304-0.932-1.036-1.66-1.968-1.956l-18.4-5.844L89.45,98.767c0.796-0.568,1.268-1.492,1.268-2.468
				c0-0.98-0.468-1.896-1.268-2.468l-15.696-11.24l18.4-5.84c0.932-0.296,1.668-1.024,1.968-1.956
				c0.304-0.932,0.136-1.948-0.444-2.736L82.226,56.511l19.304,0.132c1.132-0.024,1.904-0.456,2.476-1.248
				c0.576-0.792,0.736-1.812,0.424-2.744l-6.092-18.324l18.32,6.092c0.932,0.312,1.948,0.152,2.744-0.424s1.26-1.496,1.252-2.476
				l-0.136-19.304l15.544,11.452c0.792,0.584,1.812,0.748,2.736,0.444c0.932-0.3,1.66-1.036,1.956-1.968l5.84-18.404l11.24,15.7
				c1.136,1.596,3.796,1.596,4.936,0l11.244-15.7l5.84,18.404c0.296,0.932,1.024,1.668,1.956,1.968
				c0.916,0.3,1.952,0.14,2.736-0.444l15.54-11.452l-0.132,19.304c-0.008,0.98,0.46,1.9,1.252,2.476
				c0.788,0.572,1.808,0.732,2.744,0.424l18.324-6.092l-6.092,18.324c-0.312,0.928-0.152,1.948,0.424,2.744
				c0.576,0.792,1.712,1.268,2.476,1.248l19.304-0.132l-11.452,15.544c-0.58,0.788-0.748,1.804-0.444,2.736
				c0.304,0.932,1.036,1.66,1.968,1.956l18.4,5.84l-15.696,11.24c-0.796,0.572-1.268,1.492-1.268,2.468
				c0,0.98,0.468,1.896,1.268,2.468l15.696,11.236L228.462,115.847z"/>
			<path d="M124.394,233.411c-1.652-0.244-3.184,0.96-3.4,2.624l-1.276,9.904c-0.212,1.664,0.96,3.184,2.624,3.4
				c0.136,0.02,0.264,0.024,0.392,0.024c1.504,0,2.808-1.116,3.004-2.648l1.276-9.904
				C127.23,235.143,126.058,233.623,124.394,233.411z"/>
			<path d="M130.422,186.539c-1.668-0.204-3.184,0.96-3.4,2.624l-4.132,32.152c-0.216,1.66,0.96,3.184,2.624,3.396
				c0.132,0.02,0.26,0.024,0.392,0.024c1.504,0,2.808-1.116,3.004-2.648l4.136-32.148
				C133.258,188.275,132.086,186.755,130.422,186.539z"/>
			<path d="M197.942,75.391c4.892,8.368,7.88,17.324,8.64,27c0.212,2.728,4.5,2.756,4.284,0c-0.82-10.424-3.956-20.144-9.228-29.164
				C200.25,70.851,196.546,73.003,197.942,75.391z"/>
			<path d="M198.146,68.059c-7.72-10-17.456-17.556-29.384-21.864c-2.6-0.94-3.716,3.2-1.136,4.132
				c10.76,3.888,19.848,10.864,26.824,19.896C196.11,72.371,199.834,70.243,198.146,68.059z"/>
		</g>
	</g>
</g>
</svg>