<?xml version="1.0" encoding="iso-8859-1"?>
<!-- Uploaded to: SVG Repo, www.svgrepo.com, Generator: SVG Repo Mixer Tools -->
<svg height="800px" width="800px" version="1.1" id="Layer_1" xmlns="http://www.w3.org/2000/svg" xmlns:xlink="http://www.w3.org/1999/xlink" 
	 viewBox="0 0 512 512" xml:space="preserve">
<polygon style="fill:#FFE98F;" points="265.004,122.99 309.779,203.962 400.614,221.517 337.453,289.125 348.824,380.948 
	265.004,341.755 181.18,380.948 192.554,289.125 129.393,221.517 220.23,203.962 "/>
<polygon style="fill:#FFDA44;" points="265.004,122.99 309.779,203.962 400.614,221.517 337.453,289.125 348.824,380.948 
	265.004,341.755 "/>
<polygon style="fill:#FFE98F;" points="126.077,10.134 148.465,50.619 193.883,59.397 162.301,93.201 167.987,139.113 
	126.077,119.516 84.165,139.113 89.852,93.201 58.271,59.397 103.689,50.619 "/>
<polygon style="fill:#FFDA44;" points="126.077,10.134 148.465,50.619 193.883,59.397 162.301,93.201 167.987,139.113 
	126.077,119.516 "/>
<g>
	<polygon style="fill:#FFE98F;" points="377.125,35.894 395.04,68.294 431.388,75.318 406.115,102.371 410.664,139.113 
		377.125,123.431 343.584,139.113 348.135,102.371 322.862,75.318 359.21,68.294 	"/>
	<polygon style="fill:#FFE98F;" points="139.205,397.071 157.121,429.469 193.469,436.495 168.195,463.548 172.745,500.288 
		139.205,484.607 105.664,500.288 110.214,463.548 84.941,436.495 121.289,429.469 	"/>
</g>
<g>
	<polygon style="fill:#FFDA44;" points="377.125,35.894 395.04,68.294 431.388,75.318 406.115,102.371 410.664,139.113 
		377.125,123.431 	"/>
	<polygon style="fill:#FFDA44;" points="139.205,397.071 157.121,429.469 193.469,436.495 168.195,463.548 172.745,500.288 
		139.205,484.607 	"/>
	<polygon style="fill:#FFDA44;" points="473.859,268.092 486.452,290.865 512,295.801 494.236,314.818 497.433,340.642 
		473.859,329.62 450.283,340.642 453.482,314.818 435.719,295.801 461.266,290.865 	"/>
	<polygon style="fill:#FFDA44;" points="333.088,429.316 345.68,452.088 371.229,457.025 353.464,476.041 356.662,501.866 
		333.088,490.843 309.513,501.866 312.711,476.041 294.946,457.025 320.495,452.088 	"/>
	<polygon style="fill:#FFDA44;" points="46.616,219.725 62.007,247.557 93.232,253.591 71.52,276.833 75.429,308.398 
		46.616,294.924 17.802,308.398 21.712,276.833 0,253.591 31.226,247.557 	"/>
</g>
</svg>