<?xml version="1.0" encoding="iso-8859-1"?>
<!-- Uploaded to: SVG Repo, www.svgrepo.com, Generator: SVG Repo Mixer Tools -->
<svg fill="#000000" height="800px" width="800px" version="1.1" id="Layer_1" xmlns="http://www.w3.org/2000/svg" xmlns:xlink="http://www.w3.org/1999/xlink" 
	 viewBox="0 0 501.257 501.257" xml:space="preserve">
<g>
	<g>
		<path d="M500.229,262.4c-3.2-7.467-9.6-12.8-17.067-13.867l-108.8-16l-18.133-38.4l27.733-28.8
			c5.333-5.333,7.467-13.867,5.333-21.333c-3.2-7.467-9.6-12.8-17.067-13.867l-108.8-16l-49.067-102.4
			C210.095,4.267,203.695,0,195.162,0s-16,4.267-19.2,11.733l-49.067,102.4l-108.8,16C9.562,131.2,3.162,136.534,1.028,144
			c-2.133,7.467,0,16,5.333,21.333l80,80L67.162,358.4c-1.067,7.467,2.133,16,8.533,20.267c6.4,4.267,14.933,5.333,22.4,1.067
			l74.667-40.533l24.533,24.533L179.161,476.8c-1.067,7.467,2.133,16,8.533,20.267c6.4,4.267,14.933,5.333,22.4,1.067l97.067-52.267
			l97.067,53.333c7.467,4.267,18.133,1.067,20.267-2.133c6.4-4.267,9.6-12.8,8.533-20.267l-18.133-113.067l80-80
			C500.229,278.4,502.362,269.867,500.229,262.4z M203.695,284.8c-3.2-1.067-6.4-2.133-9.6-2.133c-3.2,0-6.4,1.067-9.6,3.2
			l-70.4,37.333l13.867-81.067c1.067-6.4-1.067-13.867-5.333-18.133l-57.6-58.667l78.933-11.733c7.467-1.067,12.8-5.333,16-11.733
			l35.2-72.533l34.133,73.6c3.2,6.4,9.6,10.667,16,11.733l78.933,11.733l-57.6,57.6c-4.267,4.267-6.4,11.733-5.333,18.133
			l12.8,81.067L203.695,284.8z M378.629,342.4c-4.267,4.267-6.4,11.733-5.333,18.133l13.867,81.067l-70.4-38.4
			c-6.4-3.2-13.867-3.2-20.267,0l-70.4,37.333l13.867-81.067c0-2.133,0-5.333,0-7.467l52.267,28.8c3.2,1.067,6.4,2.133,9.6,2.133
			c11.733,0,21.333-9.6,21.333-20.267c0-2.133,0-4.267-1.067-6.4L303.961,246.4l21.333-21.333l16,35.2c3.2,6.4,9.6,10.667,16,11.733
			l78.933,12.8L378.629,342.4z"/>
	</g>
</g>
</svg>