<?xml version="1.0" encoding="iso-8859-1"?>
<!-- Uploaded to: SVG Repo, www.svgrepo.com, Generator: SVG Repo Mixer Tools -->
<svg height="800px" width="800px" version="1.1" id="Layer_1" xmlns="http://www.w3.org/2000/svg" xmlns:xlink="http://www.w3.org/1999/xlink" 
	 viewBox="0 0 512.001 512.001" xml:space="preserve">
<polygon style="fill:#FEDEA1;" points="113.316,370.416 9.602,283.205 143.371,277.914 192.002,154.138 240.634,277.914 
	374.931,285.867 270.697,370.416 302.936,500.267 192.002,427.589 78.398,498.672 "/>
<polygon style="fill:#FEE5B4;" points="384.002,190.268 309.865,236.272 329.79,150.887 264.536,94.405 350.5,87.16 384.002,6.401 
	417.504,87.16 505.065,92.801 438.215,150.887 458.131,233.601 "/>
<polygon style="fill:#FEEBC7;" points="76.802,115.849 32.531,136.534 42.174,90.684 9.602,55.467 55.409,49.98 76.802,6.401 
	98.204,49.98 147.202,57.072 111.431,90.684 119.998,137.072 "/>
<g>
	<path style="fill:#573A32;" d="M358.419,265.182l-108.484-0.06l-33.587-103.159c-3.43-10.539-13.252-17.673-24.346-17.673
		c-11.085,0-20.907,7.134-24.346,17.673l-33.579,103.151l-108.484,0.068c-11.085,0.009-20.907,7.151-24.329,17.69
		c-3.422,10.539,0.324,22.093,9.284,28.612l87.731,63.821L64.813,478.499c-3.422,10.547,0.333,22.093,9.301,28.604
		c4.489,3.268,9.771,4.898,15.053,4.898c5.274,0,10.547-1.63,15.036-4.881l87.808-63.718l87.808,63.718
		c4.48,3.251,9.754,4.881,15.027,4.881c5.282,0,10.564-1.63,15.044-4.89c8.969-6.511,12.723-18.065,9.31-28.604l-33.459-103.194
		l87.731-63.821c8.96-6.519,12.715-18.074,9.284-28.612C379.326,272.342,369.504,265.191,358.419,265.182z M255.652,365.534
		l39.194,120.866l-102.844-74.624L89.167,486.401l39.194-120.866l-102.75-74.752l127.061-0.077l39.339-120.815l39.339,120.815
		l127.053,0.077L255.652,365.534z"/>
	<path style="fill:#573A32;" d="M510.748,92.092c-3.422-10.547-13.252-17.681-24.329-17.69l-59.622-0.034l-18.458-56.687
		c-3.43-10.539-13.252-17.681-24.337-17.681s-20.907,7.134-24.346,17.673L341.208,74.36l-59.614,0.034
		c-11.085,0.009-20.907,7.151-24.329,17.69c-3.422,10.539,0.316,22.093,9.284,28.612l48.205,35.072l-18.389,56.713
		c-3.422,10.547,0.341,22.093,9.31,28.604c4.48,3.26,9.762,4.89,15.044,4.89c5.274,0,10.547-1.63,15.036-4.881l48.247-35.012
		l48.256,35.012c4.48,3.251,9.754,4.881,15.027,4.881c5.282,0,10.564-1.63,15.053-4.89c8.969-6.519,12.723-18.065,9.31-28.604
		l-18.389-56.713l48.213-35.072C510.424,114.185,514.17,102.631,510.748,92.092z M423.17,145.997l24.115,74.377l-63.283-45.918
		l-63.283,45.926l24.115-74.377l-63.232-46.003l78.191-0.043l24.209-74.359l24.209,74.351l78.191,0.051L423.17,145.997z"/>
	<path style="fill:#573A32;" d="M10.541,83.499l16.597,12.075l-6.332,19.516c-3.422,10.547,0.333,22.093,9.301,28.612
		c4.489,3.26,9.771,4.89,15.044,4.89s10.547-1.63,15.036-4.881l16.614-12.049l16.606,12.049c4.489,3.251,9.762,4.881,15.036,4.881
		c5.282,0,10.556-1.63,15.044-4.89c8.969-6.519,12.723-18.065,9.31-28.612l-6.332-19.516l16.597-12.075
		c8.969-6.519,12.715-18.074,9.284-28.612c-3.422-10.539-13.244-17.681-24.329-17.69l-20.514-0.009l-6.357-19.516
		C97.718,7.143,87.887,0.001,76.802,0.001S55.896,7.143,52.465,17.682l-6.357,19.507l-20.514,0.017
		c-11.093,0-20.907,7.142-24.337,17.681S1.581,76.98,10.541,83.499z M64.702,62.78l12.1-37.18l12.1,37.18l39.1,0.026L96.386,85.803
		l12.058,37.188l-31.642-22.963l-31.642,22.963l12.058-37.188L25.602,62.806L64.702,62.78z"/>
</g>
</svg>