<?xml version="1.0" encoding="iso-8859-1"?>
<!-- Uploaded to: SVG Repo, www.svgrepo.com, Generator: SVG Repo Mixer Tools -->
<svg height="800px" width="800px" version="1.1" id="Layer_1" xmlns="http://www.w3.org/2000/svg" xmlns:xlink="http://www.w3.org/1999/xlink" 
	 viewBox="0 0 512.002 512.002" xml:space="preserve">
<g>
	<path style="fill:#E1B658;" d="M55.85,280.749c-2.64,5.455-6.172,10.502-10.548,14.946c-4.368,4.435-9.354,8.037-14.755,10.757
		c5.443,2.638,10.484,6.163,14.915,10.53c4.443,4.376,8.051,9.37,10.772,14.783c5.382-11.09,14.314-20.153,25.326-25.698
		C70.465,300.691,61.399,291.758,55.85,280.749z"/>
	<path style="fill:#E1B658;" d="M255.822,427.833c-2.638,5.453-6.171,10.502-10.547,14.945c-4.372,4.439-9.362,8.045-14.768,10.765
		c11.078,5.376,20.133,14.302,25.673,25.3c2.64-5.452,6.169-10.498,10.546-14.939c4.375-4.441,9.366-8.049,14.775-10.77
		C270.421,447.757,261.368,438.829,255.822,427.833z"/>
	<path style="fill:#E1B658;" d="M125.188,84.201c5.466-11.066,14.476-20.075,25.541-25.539
		c-11.066-5.466-20.075-14.476-25.541-25.541c-5.465,11.066-14.474,20.075-25.54,25.541
		C110.714,64.126,119.723,73.135,125.188,84.201z"/>
</g>
<path style="fill:#EFD18D;" d="M309.832,167.786c-2.069-0.254-3.841-1.605-4.631-3.534L261.765,58.38v174.079l165.399-50.272
	L309.832,167.786z"/>
<g>
	<path style="fill:#E1B658;" d="M386.81,84.201c5.466-11.066,14.476-20.075,25.543-25.539
		c-11.067-5.466-20.076-14.476-25.543-25.541c-5.465,11.066-14.474,20.075-25.539,25.541
		C372.336,64.126,381.346,73.135,386.81,84.201z"/>
	<path style="fill:#E1B658;" d="M340.701,261.243l86.038-66.875l-161.762,49.166l90.586,140.716l-17.029-117.629
		C338.236,264.568,339.065,262.515,340.701,261.243z"/>
</g>
<g>
	<path style="fill:#EFD18D;" d="M250.234,58.383l-43.434,105.87c-0.79,1.929-2.562,3.281-4.631,3.534L84.836,182.189l165.399,50.272
		V58.383z"/>
	<path style="fill:#EFD18D;" d="M168.576,386.695l84.021-61.446c1.013-0.742,2.208-1.112,3.402-1.112
		c1.195,0,2.389,0.37,3.402,1.112l84.025,61.448l-87.427-135.808L168.576,386.695z"/>
</g>
<g>
	<path style="fill:#E1B658;" d="M85.26,194.368l86.04,66.875c1.636,1.272,2.465,3.326,2.166,5.377l-17.029,117.63l90.583-140.717
		L85.26,194.368z"/>
	<path style="fill:#E1B658;" d="M455.802,280.749c-2.64,5.455-6.172,10.502-10.548,14.946c-4.375,4.441-9.367,8.049-14.778,10.77
		c11.091,5.383,20.153,14.322,25.695,25.334c5.379-11.105,14.319-20.183,25.342-25.731
		C470.416,300.691,461.352,291.758,455.802,280.749z"/>
</g>
<g>
	<path style="fill:#4F413B;" d="M74.929,64.427c24.533,0,44.493,19.959,44.493,44.492c0,3.183,2.581,5.765,5.765,5.765
		s5.765-2.581,5.765-5.765c0-24.533,19.96-44.492,44.494-44.492c3.183,0,5.765-2.581,5.765-5.765s-2.581-5.765-5.765-5.765
		c-24.534,0-44.494-19.961-44.494-44.496c0-3.183-2.581-5.765-5.765-5.765c-3.183,0-5.765,2.581-5.765,5.765
		c0,24.534-19.96,44.496-44.493,44.496c-3.183,0-5.765,2.581-5.765,5.765C69.165,61.845,71.746,64.427,74.929,64.427z
		 M125.188,33.121c5.466,11.066,14.476,20.075,25.541,25.541c-11.066,5.465-20.075,14.474-25.541,25.539
		c-5.465-11.066-14.474-20.075-25.54-25.539C110.714,53.196,119.723,44.186,125.188,33.121z"/>
	<path style="fill:#4F413B;" d="M336.553,64.427c24.533,0,44.492,19.959,44.492,44.492c0,3.183,2.581,5.765,5.765,5.765
		c3.183,0,5.765-2.581,5.765-5.765c0-24.533,19.961-44.492,44.496-44.492c3.183,0,5.765-2.581,5.765-5.765s-2.581-5.765-5.765-5.765
		c-24.534,0-44.496-19.961-44.496-44.496c0-3.183-2.581-5.765-5.765-5.765c-3.183,0-5.765,2.581-5.765,5.765
		c0,24.534-19.959,44.496-44.492,44.496c-3.183,0-5.765,2.581-5.765,5.765C330.788,61.845,333.37,64.427,336.553,64.427z
		 M386.81,33.121c5.466,11.066,14.476,20.075,25.543,25.541c-11.067,5.465-20.076,14.474-25.543,25.539
		c-5.465-11.066-14.474-20.075-25.539-25.539C372.336,53.196,381.346,44.186,386.81,33.121z"/>
	<path style="fill:#4F413B;" d="M106.284,300.113c-0.015,0-0.029,0-0.045,0c0,0-0.004,0-0.005,0
		c-0.113-0.001-0.223,0.001-0.337,0.001c-24.376,0-44.302-19.74-44.489-44.159c-0.023-3.169-2.601-5.721-5.763-5.721
		c-0.015,0-0.029,0-0.045,0c-3.183,0.026-5.744,2.625-5.721,5.808c0.09,11.884-4.453,23.093-12.792,31.561
		c-8.341,8.466-19.479,13.179-31.365,13.269c-3.183,0.024-5.744,2.625-5.721,5.808c0.024,3.169,2.601,5.721,5.763,5.721
		c0.015,0,0.029,0,0.045,0c11.888-0.137,23.095,4.454,31.562,12.792c8.466,8.34,13.179,19.478,13.268,31.362
		c0.024,3.169,2.601,5.721,5.763,5.721c0.015,0,0.029,0,0.045,0c3.183-0.024,5.744-2.625,5.721-5.808
		c-0.186-24.532,19.624-44.644,44.159-44.829c3.183-0.024,5.744-2.625,5.721-5.808C112.023,302.665,109.447,300.113,106.284,300.113
		z M56.234,331.765c-2.721-5.414-6.33-10.407-10.772-14.783c-4.432-4.367-9.472-7.892-14.915-10.53
		c5.402-2.72,10.387-6.323,14.755-10.757c4.376-4.444,7.909-9.491,10.548-14.946c5.549,11.009,14.615,19.942,25.709,25.32
		C70.547,311.612,61.616,320.675,56.234,331.765z"/>
	<path style="fill:#4F413B;" d="M506.237,300.113c-0.015,0-0.029,0-0.045,0c0,0-0.004,0-0.005,0
		c-0.113-0.001-0.224,0.001-0.337,0.001c-24.376,0-44.302-19.74-44.488-44.159c-0.024-3.169-2.6-5.721-5.763-5.721
		c-0.015,0-0.029,0-0.045,0c-3.183,0.026-5.744,2.625-5.721,5.808c0.09,11.884-4.453,23.093-12.792,31.561
		c-8.34,8.466-19.479,13.179-31.365,13.269c-3.183,0.024-5.744,2.625-5.721,5.808c0.024,3.169,2.6,5.721,5.763,5.721
		c0.015,0,0.029,0,0.045,0c0.003,0,0.004,0,0.004,0c0.117-0.001,0.224-0.001,0.338-0.001c24.378,0,44.305,19.738,44.489,44.157
		c0.024,3.169,2.6,5.721,5.763,5.721c0.015,0,0.029,0,0.045,0c3.183-0.024,5.744-2.625,5.721-5.808
		c-0.187-24.532,19.623-44.644,44.157-44.829c3.183-0.024,5.744-2.625,5.721-5.808C511.976,302.665,509.4,300.113,506.237,300.113z
		 M456.17,331.799c-5.542-11.013-14.604-19.951-25.695-25.334c5.411-2.721,10.403-6.33,14.778-10.77
		c4.376-4.444,7.909-9.491,10.548-14.946c5.549,11.009,14.614,19.942,25.709,25.32C470.489,311.617,461.549,320.694,456.17,331.799z
		"/>
	<path style="fill:#4F413B;" d="M306.258,447.196c-0.015,0-0.029,0-0.045,0c-0.003,0-0.004,0-0.004,0
		c-0.111,0.001-0.224,0.001-0.337,0.001c-24.378,0-44.305-19.737-44.489-44.156c-0.024-3.185-2.681-5.715-5.808-5.721
		c-3.183,0.024-5.744,2.625-5.721,5.808c0.09,11.883-4.454,23.091-12.792,31.56c-8.341,8.466-19.478,13.179-31.361,13.269
		c-3.183,0.023-5.744,2.625-5.721,5.808c0.023,3.169,2.6,5.721,5.763,5.721c0.015,0,0.029,0,0.045,0c0,0,0.004,0,0.005,0
		c0.111,0.001,0.223-0.001,0.336-0.001c24.378,0,44.305,19.738,44.489,44.159c0.024,3.169,2.601,5.721,5.763,5.721
		c0.015,0,0.029,0,0.045,0c3.183-0.024,5.744-2.625,5.721-5.808c-0.09-11.884,4.454-23.092,12.792-31.561
		c8.341-8.468,19.478-13.181,31.361-13.269c3.183-0.024,5.744-2.625,5.721-5.808C311.998,449.747,309.421,447.196,306.258,447.196z
		 M266.725,463.904c-4.375,4.441-7.905,9.487-10.545,14.939c-5.54-10.999-14.595-19.924-25.673-25.301
		c5.407-2.72,10.396-6.327,14.768-10.765c4.376-4.443,7.909-9.491,10.547-14.945c5.544,10.996,14.599,19.924,25.678,25.301
		C276.092,455.854,271.1,459.463,266.725,463.904z"/>
	<path style="fill:#4F413B;" d="M350.425,268.287l108.008-83.952c1.843-1.432,2.64-3.834,2.019-6.085
		c-0.62-2.251-2.538-3.903-4.855-4.189l-141.013-17.308L261.332,26.956c-0.886-2.165-2.995-3.577-5.333-3.577
		c-2.338,0-4.446,1.412-5.333,3.577l-53.25,129.797L56.402,174.063c-2.317,0.286-4.235,1.938-4.855,4.189
		c-0.62,2.251,0.177,4.653,2.019,6.085l108.008,83.952L141.227,408.84c-0.333,2.297,0.744,4.568,2.734,5.766
		c0.917,0.552,1.946,0.824,2.971,0.824c1.199,0,2.393-0.373,3.402-1.112l105.663-77.273l105.665,77.273
		c1.874,1.372,4.386,1.483,6.374,0.288c1.989-1.198,3.066-3.469,2.734-5.766L350.425,268.287z M261.764,58.382L305.2,164.253
		c0.79,1.929,2.562,3.281,4.631,3.534l117.332,14.401L261.764,232.46V58.382z M202.17,167.786c2.069-0.254,3.841-1.605,4.631-3.534
		l43.434-105.87v174.078L84.836,182.187L202.17,167.786z M173.465,266.621c0.297-2.052-0.53-4.104-2.166-5.377l-86.04-66.875
		l161.76,49.166l-90.583,140.717L173.465,266.621z M259.401,325.249c-1.013-0.742-2.208-1.112-3.402-1.112
		c-1.195,0-2.389,0.37-3.402,1.112l-84.021,61.446l87.423-135.807l87.427,135.808L259.401,325.249z M264.978,243.534l161.762-49.166
		l-86.038,66.875c-1.636,1.272-2.465,3.326-2.166,5.377l17.029,117.629L264.978,243.534z"/>
</g>
</svg>