<?xml version="1.0" encoding="iso-8859-1"?>
<!-- Uploaded to: SVG Repo, www.svgrepo.com, Generator: SVG Repo Mixer Tools -->
<svg height="800px" width="800px" version="1.1" id="Layer_1" xmlns="http://www.w3.org/2000/svg" xmlns:xlink="http://www.w3.org/1999/xlink" 
	 viewBox="0 0 512.427 512.427" xml:space="preserve">
<g transform="translate(0 1)">
	<g>
		<polygon style="fill:#FDCC00;" points="285.227,60.867 367.147,33.56 324.48,7.96 273.28,42.093 298.88,42.093 		"/>
		<polygon style="fill:#FDCC00;" points="227.2,60.867 145.28,33.56 187.947,7.96 239.147,42.093 213.547,42.093 		"/>
	</g>
	<g>
		<polygon style="fill:#FFE100;" points="213.547,42.093 298.88,42.093 256.213,101.827 		"/>
		<polygon style="fill:#FFE100;" points="298.88,451.693 256.213,502.893 213.547,451.693 222.08,127.427 256.213,101.827 
			290.347,127.427 		"/>
	</g>
	<polygon style="fill:#FFFFFF;" points="222.08,127.427 256.213,101.827 256.213,108.653 239.147,127.427 230.613,451.693 
		247.68,492.653 256.213,502.893 213.547,451.693 	"/>
	<polygon style="fill:#FFA800;" points="290.347,127.427 256.213,101.827 256.213,108.653 273.28,127.427 281.813,451.693 
		264.747,492.653 256.213,502.893 298.88,451.693 	"/>
	<path d="M256.213,110.36c-2.56,0-5.12-1.707-6.827-3.413L206.72,47.213c-1.707-2.56-2.56-5.973-0.853-9.387
		c1.707-3.413,4.267-4.267,7.68-4.267h85.333c3.413,0,5.973,1.707,7.68,4.267c1.707,2.56,0.853,5.973-0.853,8.533l-42.667,59.733
		C261.333,108.653,258.773,110.36,256.213,110.36z M229.76,50.627l26.453,36.693l26.453-36.693H229.76z"/>
	<path d="M256.213,511.427c-2.56,0-5.12-0.853-6.827-3.413l-42.667-51.2c-0.853-0.853-1.707-3.413-1.707-5.12l8.533-324.267
		c0-2.56,1.707-5.12,3.413-6.827L251.093,95c3.413-2.56,6.827-2.56,10.24,0l34.133,25.6c1.707,1.707,3.413,4.267,3.413,6.827
		l8.533,324.267c0,1.707-0.853,4.267-1.707,5.973l-42.667,51.2C261.333,510.573,258.773,511.427,256.213,511.427z M222.08,448.28
		l34.133,40.96l34.133-40.96l-8.533-316.587l-25.6-19.627l-25.6,19.627L222.08,448.28z"/>
	<path d="M285.227,69.4c-2.56,0-5.12-0.853-6.827-3.413c-2.56-2.56-2.56-6.827,0-10.24l4.267-5.12h-9.387
		c-3.413,0-6.827-2.56-8.533-5.973c-0.853-3.413,0-7.68,3.413-9.387l51.2-34.133c2.56-1.707,5.973-1.707,9.387,0l42.667,25.6
		c2.56,1.707,4.267,5.12,4.267,8.533c0,3.413-2.56,5.973-5.973,6.827L287.787,69.4C286.933,69.4,286.08,69.4,285.227,69.4z
		 M301.44,33.56c2.56,0.853,4.267,2.56,5.12,4.267c0.853,2.56,0.853,4.267,0.853,6.827L347.52,31l-23.04-12.8L301.44,33.56z"/>
	<path d="M227.2,69.4c-0.853,0-1.707,0-2.56-0.853L142.72,41.24c-3.413-0.853-5.973-3.413-5.973-6.827
		c0-3.413,0.853-6.827,4.267-8.533l42.667-25.6c2.56-1.707,5.973-1.707,9.387,0l51.2,34.133c3.413,1.707,4.267,5.973,3.413,9.387
		c-1.707,4.267-5.12,6.827-8.533,6.827h-9.387l2.56,4.267c1.707,1.707,2.56,3.413,2.56,5.973C235.733,65.133,232.32,69.4,227.2,69.4
		L227.2,69.4z M165.76,31l39.253,13.653c0-2.56,0-4.267,0.853-6.827c0.853-1.707,3.413-3.413,5.12-4.267l-23.04-15.36L165.76,31z"/>
</g>
</svg>