<?xml version="1.0" encoding="iso-8859-1"?>
<!-- Uploaded to: SVG Repo, www.svgrepo.com, Generator: SVG Repo Mixer Tools -->
<svg fill="#000000" height="800px" width="800px" version="1.1" id="Layer_1" xmlns="http://www.w3.org/2000/svg" xmlns:xlink="http://www.w3.org/1999/xlink" 
	 viewBox="0 0 512 512" xml:space="preserve">
<g>
	<g>
		<path d="M437.018,74.981C388.667,26.63,324.379,0.001,256,0.001c-68.381,0-132.668,26.629-181.02,74.981
			C26.629,123.333,0,187.62,0,256s26.629,132.667,74.981,181.019c48.352,48.352,112.639,74.981,181.02,74.981
			c68.38,0,132.668-26.629,181.019-74.981C485.372,388.667,512,324.38,512,256S485.371,123.333,437.018,74.981z M86.295,86.295
			c29.377-29.376,65.031-50.186,103.933-61.205c-15.595,12.69-29.9,30.009-42.327,51.55
			c-26.707,46.292-41.845,107.129-42.91,172.006H16.122C17.957,187.296,42.702,129.886,86.295,86.295z M86.295,425.706
			c-43.342-43.342-68.049-100.346-70.133-161.3h88.851c1.211,64.483,16.326,124.913,42.888,170.955
			c12.427,21.541,26.732,38.86,42.327,51.55C151.325,475.891,115.67,455.082,86.295,425.706z M247.594,264.405v231.112
			c-32.126-3.557-62.34-27.429-85.835-68.154c-25.192-43.667-39.546-101.26-40.744-162.96h126.579V264.405z M247.594,248.645
			H120.993c1.054-62.096,15.431-120.096,40.766-164.01c23.495-40.724,53.709-64.596,85.835-68.153V248.645z M425.706,86.295
			c43.591,43.591,68.338,101.002,70.172,162.35h-88.867c-1.065-64.877-16.203-125.713-42.91-172.006
			c-12.427-21.541-26.733-38.86-42.327-51.55C360.674,36.109,396.33,56.919,425.706,86.295z M263.354,248.645V16.369
			c32.518,3.147,63.135,27.099,86.886,68.267c25.335,43.915,39.712,101.914,40.766,164.01H263.354V248.645z M263.354,495.632
			V264.405h127.631c-1.198,61.698-15.552,119.293-40.744,162.96C326.489,468.533,295.872,492.485,263.354,495.632z M425.706,425.706
			c-29.376,29.376-65.031,50.186-103.933,61.205c15.595-12.689,29.9-30.008,42.327-51.55
			c26.563-46.042,41.678-106.473,42.888-170.955h88.851C493.754,325.36,469.048,382.364,425.706,425.706z"/>
	</g>
</g>
</svg>